<?xml version="1.0" standalone="no"?><!DOCTYPE svg PUBLIC "-//W3C//DTD SVG 1.1//EN" "http://www.w3.org/Graphics/SVG/1.1/DTD/svg11.dtd"><svg t="1687143140608" class="icon" viewBox="0 0 1024 1024" version="1.1" xmlns="http://www.w3.org/2000/svg" p-id="1808" xmlns:xlink="http://www.w3.org/1999/xlink" width="200" height="200"><path d="M908.778343 622.074205l-104.527628-390.805335s-6.399651-25.171959-30.718324-14.079232l-238.920292 110.927279 36.691331 136.525881 46.504128 174.070499 0.426643 2.55986c2.133217 20.052239-17.492379 33.704827-17.492378 33.704827l-80.208955 37.117974 21.332169 80.635599 1.706573 4.266434c2.986504 7.252937 11.946015 25.598603 34.558114 38.824547l296.517148 182.176723s29.01175 17.492379 22.185456-7.252938l-84.475389-315.7161 79.355668-36.691331s23.892029-11.092728 17.065736-36.264687z m-321.689108 3.839791l-0.426644-2.559861-48.210701-180.043506-28.158464-104.527628-28.585106-106.234201v-1.706573s-6.826294-25.171959-35.838044-42.664338L149.353128 6.001166s-29.01175-17.492379-22.185456 7.252937l84.902033 316.569387-79.782312 37.117974s-23.892029 11.092728-17.065736 36.264688l104.527628 390.805335s6.826294 25.171959 30.718324 14.079231l263.238965-122.446649 55.463639-26.025247s22.185456-10.239441 17.919022-33.704826z" p-id="1809" fill="#1296db"></path></svg>